<svg xmlns="http://www.w3.org/2000/svg" viewBox="0 0 190.333 162.945"><defs><style>.cls-1{fill:#231f20;}.cls-2,.cls-3,.cls-5{fill:none;stroke-miterlimit:10;}.cls-2,.cls-3{stroke:#231f20;}.cls-3{stroke-dasharray:1.977 1.977;}.cls-4{fill:#fff;}.cls-5{stroke:#fff;stroke-linecap:round;stroke-width:5px;}</style></defs><title>Asset 1@8x-100</title><g id="Layer_2" data-name="Layer 2"><g id="Layer_1-2" data-name="Layer 1"><circle class="cls-1" cx="5.25" cy="14.435" r="5.25"/><circle class="cls-1" cx="53.75" cy="24.435" r="5.25"/><circle class="cls-1" cx="101" cy="24.435" r="5.25"/><circle class="cls-1" cx="137.055" cy="73.386" r="5.25"/><polyline class="cls-2" points="5.25 14.435 53.75 24.435 101 24.435 137.055 73.386"/><path class="cls-2" d="M137.055,73.386s.223.26.62.78"/><path class="cls-3" d="M138.836,75.76c4.714,6.753,17.19,27.881,17.651,62.9"/><path class="cls-2" d="M156.5,139.657q0,.5,0,1"/><circle class="cls-1" cx="156.711" cy="142.166" r="20.779"/><circle class="cls-4" cx="146.79" cy="141.166" r="2.791"/><circle class="cls-4" cx="166.633" cy="141.166" r="2.791"/><path class="cls-5" d="M153.452,146.735a5.072,5.072,0,0,1,3.27-1.138,4.981,4.981,0,0,1,3.249,1.138"/><path class="cls-1" d="M16.464,4.336v.752H12.92V4.336H14.3V.992H13.232V.416a5.22,5.22,0,0,0,.74-.172A3.378,3.378,0,0,0,14.544,0h.672V4.336Z"/><path class="cls-1" d="M21.264,4.336v.752H17.72V4.336H19.1V.992H18.032V.416a5.22,5.22,0,0,0,.74-.172A3.378,3.378,0,0,0,19.344,0h.672V4.336Z"/><path class="cls-1" d="M65.964,15.933v.752H62.42v-.752H63.8V12.589H62.732v-.576a5.22,5.22,0,0,0,.74-.172,3.378,3.378,0,0,0,.572-.244h.672v4.336Z"/><path class="cls-1" d="M68.9,16.781a1.625,1.625,0,0,1-1.38-.688,3.287,3.287,0,0,1-.508-1.976,3.17,3.17,0,0,1,.508-1.956,1.772,1.772,0,0,1,2.76,0,3.17,3.17,0,0,1,.508,1.956,3.287,3.287,0,0,1-.508,1.976A1.625,1.625,0,0,1,68.9,16.781Zm0-4.56a.9.9,0,0,0-.424.1.87.87,0,0,0-.332.324,1.87,1.87,0,0,0-.22.588,4.2,4.2,0,0,0-.08.884,4.313,4.313,0,0,0,.08.892,1.984,1.984,0,0,0,.22.6.929.929,0,0,0,.332.34.879.879,0,0,0,.844,0,.915.915,0,0,0,.336-.34,1.984,1.984,0,0,0,.22-.6,4.31,4.31,0,0,0,.08-.892,4.2,4.2,0,0,0-.08-.884,1.87,1.87,0,0,0-.22-.588.859.859,0,0,0-.336-.324A.907.907,0,0,0,68.9,12.221Zm0,2.432a.535.535,0,1,1,.392-.152A.547.547,0,0,1,68.9,14.653Z"/><path class="cls-1" d="M111.464,15.933v.752H107.92v-.752H109.3V12.589h-1.064v-.576a5.22,5.22,0,0,0,.74-.172,3.378,3.378,0,0,0,.572-.244h.672v4.336Z"/><path class="cls-1" d="M114.4,16.781a1.625,1.625,0,0,1-1.38-.688,3.287,3.287,0,0,1-.508-1.976,3.17,3.17,0,0,1,.508-1.956,1.772,1.772,0,0,1,2.76,0,3.17,3.17,0,0,1,.508,1.956,3.287,3.287,0,0,1-.508,1.976A1.625,1.625,0,0,1,114.4,16.781Zm0-4.56a.9.9,0,0,0-.424.1.87.87,0,0,0-.332.324,1.87,1.87,0,0,0-.22.588,4.2,4.2,0,0,0-.08.884,4.313,4.313,0,0,0,.08.892,1.984,1.984,0,0,0,.22.6.929.929,0,0,0,.332.34.879.879,0,0,0,.844,0,.915.915,0,0,0,.336-.34,1.984,1.984,0,0,0,.22-.6,4.31,4.31,0,0,0,.08-.892,4.2,4.2,0,0,0-.08-.884,1.87,1.87,0,0,0-.22-.588.859.859,0,0,0-.336-.324A.907.907,0,0,0,114.4,12.221Zm0,2.432a.535.535,0,1,1,.392-.152A.547.547,0,0,1,114.4,14.653Z"/><path class="cls-1" d="M147.459,65.308a6.216,6.216,0,0,1,.288-1.072,6.071,6.071,0,0,1,.476-.992,8.954,8.954,0,0,1,.7-1h-2.744v-.775h3.76v.56a7.689,7.689,0,0,0-.808,1.052,5.222,5.222,0,0,0-.5,1.021,5.552,5.552,0,0,0-.264,1.116q-.081.6-.112,1.34h-.936A9.779,9.779,0,0,1,147.459,65.308Z"/><path class="cls-1" d="M178.669,123.517a1,1,0,0,1,.024-.488,1.413,1.413,0,0,1,.2-.392,1.97,1.97,0,0,1,.3-.324q.168-.148.312-.292a1.926,1.926,0,0,0,.244-.292.57.57,0,0,0,.1-.324.594.594,0,0,0-.2-.464.78.78,0,0,0-.54-.176,1.1,1.1,0,0,0-.5.112,1.708,1.708,0,0,0-.424.3l-.521-.48a2.319,2.319,0,0,1,.656-.5,1.858,1.858,0,0,1,.856-.191,2.189,2.189,0,0,1,.623.084,1.435,1.435,0,0,1,.5.248,1.147,1.147,0,0,1,.324.4,1.237,1.237,0,0,1,.116.549,1.006,1.006,0,0,1-.1.455,1.569,1.569,0,0,1-.253.364,4.505,4.505,0,0,1-.323.316,3.086,3.086,0,0,0-.309.312,1.436,1.436,0,0,0-.22.349.779.779,0,0,0-.052.428Zm-.248,1.328a.681.681,0,0,1,.2-.513.739.739,0,0,1,.992,0,.677.677,0,0,1,.2.513.7.7,0,0,1-.2.523.725.725,0,0,1-.992,0A.7.7,0,0,1,178.421,124.845Z"/><path class="cls-1" d="M183.469,123.517a1,1,0,0,1,.024-.488,1.413,1.413,0,0,1,.2-.392,1.97,1.97,0,0,1,.3-.324q.168-.148.312-.292a1.926,1.926,0,0,0,.244-.292.57.57,0,0,0,.1-.324.594.594,0,0,0-.2-.464.78.78,0,0,0-.54-.176,1.1,1.1,0,0,0-.5.112,1.708,1.708,0,0,0-.424.3l-.521-.48a2.319,2.319,0,0,1,.656-.5,1.858,1.858,0,0,1,.856-.191,2.189,2.189,0,0,1,.623.084,1.435,1.435,0,0,1,.5.248,1.147,1.147,0,0,1,.324.4,1.237,1.237,0,0,1,.116.549,1.006,1.006,0,0,1-.1.455,1.569,1.569,0,0,1-.253.364,4.505,4.505,0,0,1-.323.316,3.086,3.086,0,0,0-.309.312,1.436,1.436,0,0,0-.22.349.779.779,0,0,0-.052.428Zm-.248,1.328a.681.681,0,0,1,.2-.513.739.739,0,0,1,.992,0,.677.677,0,0,1,.2.513.7.7,0,0,1-.2.523.725.725,0,0,1-.992,0A.7.7,0,0,1,183.221,124.845Z"/><path class="cls-1" d="M188.27,123.517a.987.987,0,0,1,.023-.488,1.468,1.468,0,0,1,.2-.392,2.06,2.06,0,0,1,.3-.324q.168-.148.313-.292a2.048,2.048,0,0,0,.244-.292.569.569,0,0,0,.1-.324.594.594,0,0,0-.2-.464.778.778,0,0,0-.54-.176,1.1,1.1,0,0,0-.5.112,1.726,1.726,0,0,0-.424.3l-.52-.48a2.328,2.328,0,0,1,.655-.5,1.858,1.858,0,0,1,.856-.191,2.2,2.2,0,0,1,.624.084,1.435,1.435,0,0,1,.5.248,1.158,1.158,0,0,1,.324.4,1.236,1.236,0,0,1,.115.549,1.006,1.006,0,0,1-.1.455,1.536,1.536,0,0,1-.252.364,4.521,4.521,0,0,1-.324.316,3.18,3.18,0,0,0-.308.312,1.436,1.436,0,0,0-.22.349.77.77,0,0,0-.053.428Zm-.248,1.328a.677.677,0,0,1,.2-.513.739.739,0,0,1,.992,0,.68.68,0,0,1,.2.513.7.7,0,0,1-.2.523.725.725,0,0,1-.992,0A.7.7,0,0,1,188.021,124.845Z"/></g></g></svg>